{"title":"xXx.2002.SWESUB.DVDRip.XviD.AC3.(5.1).-Zen_Bud","uid":5609850,"size":1472569678,"categoryP":"video","categoryS":"movies","magnet":"?xt=urn:btih:dc259c128db73e298a9fbfc058db8b5e5e615f1a&amp;dn=xXx.2002.SWESUB.DVDRip.XviD.AC3.%285.1%29.-Zen_Bud&amp;tr=udp%3A%2F%2Ftracker.openbittorrent.com%3A80&amp;tr=udp%3A%2F%2Fopen.demonii.com%3A1337&amp;tr=udp%3A%2F%2Ftracker.coppersurfer.tk%3A6969&amp;tr=udp%3A%2F%2Fexodus.desync.com%3A6969","seeders":2,"leechers":0,"uploader":"Zen_Bud","files":-1,"time":1275811036,"description":"General\nComplete name                    : xXx.avi\nFormat                           : AVI\nFile size                        : 1.37 GiB\nDuration                         : 2h 4mn\nOverall bit rate                 : 1 582 Kbps\n\nVideo\nID                               : 0\nCodec ID/Hint                    : XviD\nDuration                         : 2h 4mn\nBit rate                         : 1 123 Kbps\nWidth                            : 720 pixels\nHeight                           : 488 pixels\nDisplay aspect ratio             : 2.098\nBit depth                        : 8 bits\nScan type                        : Progressive\nBits/(Pixel*Frame)               : 0.128\nStream size                      : 997 MiB (71%)\nWriting library                  : XviD 1.1.2 (UTC 2006-11-01)\n\nAudio\nID                               : 1\nFormat                           : AC-3\nDuration                         : 2h 4mn\nBit rate                         : 448 Kbps\nChannel(s)                       : 6 channels\nChannel positions                : Front: L C R, Side: L R, LFE\nSampling rate                    : 48.0 KHz\nStream size                      : 398 MiB (28%)\n\n\n","torrent":{"xt":"urn:btih:dc259c128db73e298a9fbfc058db8b5e5e615f1a","amp;dn":"xXx.2002.SWESUB.DVDRip.XviD.AC3.%285.1%29.-Zen_Bud","amp;tr":["udp%3A%2F%2Ftracker.openbittorrent.com%3A80","udp%3A%2F%2Fopen.demonii.com%3A1337","udp%3A%2F%2Ftracker.coppersurfer.tk%3A6969","udp%3A%2F%2Fexodus.desync.com%3A6969"],"infoHash":"dc259c128db73e298a9fbfc058db8b5e5e615f1a","infoHashBuffer":{"type":"Buffer","data":[220,37,156,18,141,183,62,41,138,159,191,192,88,219,139,94,94,97,95,26]},"announce":[],"urlList":[]}}